<svg xmlns="http://www.w3.org/2000/svg" viewBox="0 0 40 40" style="enable-background:new 0 0 40 40" xml:space="preserve"><path d="M1 39v-.1c0-9.3 5.3-17.5 13.2-20.4l1.5-.6-1.2-1.1c-1.8-1.7-2.9-4.2-2.9-6.8 0-5 3.7-9 8.3-9 4.6 0 8.3 4 8.3 9 0 2.6-1.1 5.1-2.9 6.8l-1.2 1.1 1.5.6c8.1 2.8 13.4 11 13.4 20.4v.1H1z"/><path d="M20 2c4.1 0 7.3 3.6 7.3 8 0 2.3-.9 4.5-2.6 6.1l-2.4 2.2 3.1 1.1C32.7 22 37.7 29.4 38 38H2c.3-8.6 5.3-16 12.5-18.6l3.1-1.1-2.4-2.2c-1.6-1.5-2.6-3.7-2.6-6.1.1-4.4 3.3-8 7.4-8m0-2c-5.2 0-9.3 4.5-9.3 10 0 3 1.2 5.7 3.2 7.5C5.8 20.4 0 28.9 0 38.9V40h40v-1.1c0-10-5.8-18.4-13.9-21.3 2-1.8 3.2-4.5 3.2-7.5C29.3 4.5 25.2 0 20 0z"/></svg>