<svg width="457" height="43" xmlns="http://www.w3.org/2000/svg" xml:space="preserve"><path d="M451 30.7c2.8 0 5.2 2.3 5.2 5.1S453.9 41 451 41c-2.8 0-5.1-2.3-5.1-5.2-.1-2.8 2.2-5.1 5.1-5.1zm4.2 5.1c0-2.4-1.9-4.3-4.2-4.3-2.3 0-4.2 1.9-4.2 4.3s1.9 4.3 4.2 4.3c2.3 0 4.2-1.9 4.2-4.3zm-6.3-3h2.3c1.3 0 2.1.6 2.1 1.8 0 1.1-.7 1.6-1.6 1.7l1.7 2.6h-.9l-1.7-2.5h-1v2.5h-.9v-6.1zm1.9 2.7c.8 0 1.6 0 1.6-.9 0-.8-.7-.9-1.3-.9h-1.2v1.8h.9z"/><g stroke="#000" stroke-width=".404" stroke-miterlimit="10"><path d="M18.5 7.4v34h-6v-34H.9V1.6h29.2v5.9H18.5zM61.8 41.4V23.5H43.5v17.9h-6V1.6h6v16.1h18.3V1.6h6v39.8h-6zM78.2 41.4V1.6h25.7v5.8H84.2v9.8h11.4V23H84.2v12.6h20.5v5.8H78.2zM160.9 29.2c0 4.1-1.2 7.1-3.6 9.2-2.4 2.1-5.7 3.1-10.1 3.1h-15.8V1.6h16.4c3.5 0 6.3.9 8.3 2.6 2.1 1.8 3.1 4.3 3.1 7.7 0 2-.5 3.7-1.5 5-1 1.3-2.2 2.3-3.6 3 .8.2 1.6.6 2.4 1.1.8.5 1.5 1.1 2.2 1.9.6.8 1.2 1.7 1.6 2.7.4 1 .6 2.2.6 3.6zm-7.6-17c0-1.5-.4-2.7-1.3-3.7-.8-1-2.3-1.5-4.3-1.5H137v10.2h10.7c1 0 1.8-.1 2.5-.4.7-.3 1.3-.7 1.7-1.1.4-.5.8-1 1-1.6.3-.6.4-1.2.4-1.9zm1.7 17.2c0-2-.6-3.7-1.8-4.8-1.2-1.2-3-1.8-5.2-1.8h-10.8V36h10.6c2.7 0 4.5-.6 5.6-1.8 1-1.3 1.6-2.9 1.6-4.8zM201.5 21.5c0 3-.4 5.8-1.2 8.3-.8 2.5-1.9 4.7-3.4 6.5-1.5 1.8-3.2 3.2-5.3 4.2-2.1 1-4.4 1.5-7 1.5-2.6 0-4.9-.5-7-1.5-2.1-1-3.8-2.4-5.3-4.2-1.5-1.8-2.6-4-3.4-6.5-.8-2.5-1.2-5.3-1.2-8.3 0-3 .4-5.8 1.2-8.3.8-2.5 1.9-4.7 3.4-6.5 1.5-1.8 3.2-3.2 5.3-4.2 2.1-1 4.4-1.5 7-1.5 2.6 0 4.9.5 7 1.5 2.1 1 3.9 2.4 5.3 4.2 1.5 1.8 2.6 4 3.4 6.5.8 2.5 1.2 5.3 1.2 8.3zm-6.1 0c0-4.5-.9-8-2.8-10.6-1.8-2.6-4.5-3.9-8.1-3.9-3.5 0-6.2 1.3-8 3.9-1.8 2.6-2.8 6.2-2.8 10.6 0 4.5.9 8 2.8 10.6 1.8 2.6 4.5 3.9 8 3.9s6.2-1.3 8.1-3.9c1.9-2.6 2.8-6.1 2.8-10.6zM240.4 21.5c0 3.5-.5 6.5-1.6 9-1 2.5-2.5 4.6-4.2 6.2-1.8 1.6-3.8 2.8-6.2 3.6-2.3.8-4.8 1.1-7.4 1.1h-10.9V1.6H221c2.7 0 5.2.4 7.5 1.1 2.4.8 4.4 1.9 6.2 3.6 1.7 1.6 3.1 3.7 4.2 6.2 1 2.5 1.5 5.5 1.5 9zm-6.1 0c0-2.1-.2-4-.7-5.7-.5-1.7-1.3-3.2-2.4-4.5-1.1-1.3-2.5-2.2-4.2-2.9-1.7-.7-3.7-1-6.1-1H216v28.2h4.9c2.4 0 4.4-.3 6.1-1 1.7-.7 3.1-1.7 4.2-2.9 1.1-1.3 1.9-2.7 2.4-4.5.5-1.7.7-3.6.7-5.7zM263.2 25.7v15.8h-6V25.7L242.9 1.6h7l6.2 11c.3.6.7 1.3 1.1 2 .4.8.8 1.5 1.2 2.2.4.7.7 1.4 1.1 2.1.3.6.5 1.2.7 1.5.2-.4.4-.9.7-1.5.3-.6.7-1.3 1.1-2 .4-.7.8-1.5 1.2-2.2.4-.8.8-1.5 1.1-2.1l6.3-11h6.9l-14.3 24.1zM323.1 30c0 1.8-.3 3.4-.9 4.9-.6 1.5-1.5 2.8-2.7 3.8-1.2 1.1-2.7 1.9-4.6 2.5-1.9.6-4.1.9-6.6.9-2.9 0-5.6-.6-8-1.7-2.4-1.2-4.5-2.7-6.2-4.7l4.3-4.2c1.3 1.4 2.9 2.6 4.8 3.4 1.8.9 3.7 1.3 5.6 1.3 5.5 0 8.3-1.9 8.3-5.8 0-.8-.2-1.4-.5-2-.3-.6-.8-1.2-1.5-1.7s-1.7-1-2.8-1.5c-1.1-.5-2.5-.9-4.2-1.4-2.1-.6-4-1.2-5.5-1.9-1.6-.6-2.8-1.4-3.9-2.2-1-.9-1.8-1.9-2.3-3.1-.5-1.2-.8-2.7-.8-4.5 0-1.7.3-3.3 1-4.6.7-1.4 1.6-2.6 2.8-3.5 1.2-.9 2.6-1.7 4.2-2.2 1.6-.5 3.3-.8 5.2-.8 2.7 0 5.1.5 7.2 1.4 2.1.9 4 2.3 5.8 4l-4.2 4.3c-1.3-1.3-2.6-2.2-4.1-2.9-1.5-.6-3.2-.9-5.2-.9-2.4 0-4.1.5-5.1 1.5s-1.6 2.1-1.6 3.5c0 .7.1 1.3.4 1.9.3.6.7 1.1 1.4 1.5.6.5 1.5.9 2.7 1.4 1.1.5 2.6.9 4.3 1.4 2 .6 3.7 1.2 5.3 1.9a14 14 0 0 1 4 2.3c1.1.9 1.9 2 2.5 3.2.6 1.2.9 2.7.9 4.5zM355.8 41.4V23.5h-18.3v17.9h-6V1.6h6v16.1h18.3V1.6h6v39.8h-6zM404.2 21.5c0 3-.4 5.8-1.2 8.3-.8 2.5-1.9 4.7-3.4 6.5-1.5 1.8-3.2 3.2-5.3 4.2-2.1 1-4.4 1.5-7 1.5-2.6 0-4.9-.5-7-1.5-2.1-1-3.8-2.4-5.3-4.2-1.5-1.8-2.6-4-3.4-6.5-.8-2.5-1.2-5.3-1.2-8.3 0-3 .4-5.8 1.2-8.3.8-2.5 1.9-4.7 3.4-6.5 1.5-1.8 3.2-3.2 5.3-4.2 2.1-1 4.4-1.5 7-1.5 2.6 0 4.9.5 7 1.5 2.1 1 3.9 2.4 5.3 4.2 1.5 1.8 2.6 4 3.4 6.5.8 2.5 1.2 5.3 1.2 8.3zm-6.1 0c0-4.5-.9-8-2.8-10.6-1.8-2.6-4.5-3.9-8.1-3.9-3.5 0-6.2 1.3-8 3.9-1.8 2.6-2.8 6.2-2.8 10.6 0 4.5.9 8 2.8 10.6 1.8 2.6 4.5 3.9 8 3.9s6.2-1.3 8.1-3.9c1.9-2.6 2.8-6.1 2.8-10.6zM442.3 14c0 2-.3 3.9-1 5.4-.6 1.6-1.6 2.9-2.7 3.9-1.2 1.1-2.6 1.9-4.2 2.4s-3.4.8-5.3.8h-10.4v14.9h-5.9V1.6h16.7c1.8 0 3.5.3 5.1.8 1.6.5 2.9 1.3 4.1 2.4 1.1 1 2 2.3 2.7 3.9.5 1.5.9 3.3.9 5.3zm-6.1 0c0-2.2-.6-3.9-1.9-5.1-1.2-1.2-2.9-1.8-5-1.8h-10.7v13.7h10.7c2.3 0 4-.6 5.1-1.8 1.2-1.1 1.8-2.8 1.8-5z"/></g></svg>